<svg xmlns="http://www.w3.org/2000/svg" xmlns:xlink="http://www.w3.org/1999/xlink" width="500" zoomAndPan="magnify" viewBox="0 0 375 374.999991" height="500" preserveAspectRatio="xMidYMid meet" version="1.0"><defs><clipPath id="id1"><path d="M 4.070312 193 L 105 193 L 105 250 L 4.070312 250 Z M 4.070312 193 " clip-rule="nonzero"/></clipPath><clipPath id="id2"><path d="M 101 90 L 278 90 L 278 283 L 101 283 Z M 101 90 " clip-rule="nonzero"/></clipPath><clipPath id="id3"><path d="M 89.824219 120.054688 L 258.886719 85.78125 L 293.160156 254.839844 L 124.097656 289.113281 Z M 89.824219 120.054688 " clip-rule="nonzero"/></clipPath><clipPath id="id4"><path d="M 89.824219 120.054688 L 258.886719 85.78125 L 293.160156 254.839844 L 124.097656 289.113281 Z M 89.824219 120.054688 " clip-rule="nonzero"/></clipPath></defs><path fill="#96d7c7" d="M 372.21875 181.226562 C 370.625 181.226562 369.03125 180.617188 367.816406 179.402344 L 328.613281 140.214844 L 289.414062 179.402344 C 286.976562 181.835938 283.042969 181.835938 280.605469 179.402344 C 278.171875 176.964844 278.171875 173.03125 280.605469 170.597656 L 324.210938 127.003906 C 326.644531 124.570312 330.582031 124.570312 333.019531 127.003906 L 376.625 170.597656 C 379.058594 173.03125 379.058594 176.964844 376.625 179.402344 C 375.410156 180.617188 373.8125 181.226562 372.21875 181.226562 Z M 372.21875 181.226562 " fill-opacity="1" fill-rule="nonzero"/><g clip-path="url(#id1)"><path fill="#7bd4fb" d="M 54.527344 249.726562 C 52.933594 249.726562 51.339844 249.113281 50.125 247.902344 L 6.519531 204.308594 C 4.082031 201.875 4.082031 197.941406 6.519531 195.503906 C 8.949219 193.070312 12.898438 193.070312 15.328125 195.503906 L 54.527344 234.691406 L 93.730469 195.503906 C 96.15625 193.070312 100.105469 193.070312 102.535156 195.503906 C 104.972656 197.941406 104.972656 201.875 102.535156 204.308594 L 58.933594 247.902344 C 57.71875 249.113281 56.121094 249.726562 54.527344 249.726562 Z M 54.527344 249.726562 " fill-opacity="1" fill-rule="nonzero"/></g><path fill="#96d7c7" d="M 297.46875 330.679688 L 85.675781 330.679688 C 65.066406 330.679688 48.296875 313.921875 48.296875 293.316406 L 48.296875 280.859375 C 48.296875 277.421875 51.089844 274.632812 54.527344 274.632812 C 57.964844 274.632812 60.757812 277.421875 60.757812 280.859375 L 60.757812 293.316406 C 60.757812 307.054688 71.933594 318.222656 85.675781 318.222656 L 297.46875 318.222656 C 311.210938 318.222656 322.386719 307.054688 322.386719 293.316406 L 322.386719 131.410156 C 322.386719 127.972656 325.175781 125.179688 328.613281 125.179688 C 332.054688 125.179688 334.84375 127.972656 334.84375 131.410156 L 334.84375 293.316406 C 334.84375 313.921875 318.082031 330.679688 297.46875 330.679688 Z M 297.46875 330.679688 " fill-opacity="1" fill-rule="nonzero"/><path fill="#7bd4fb" d="M 54.527344 249.726562 C 51.089844 249.726562 48.296875 246.933594 48.296875 243.496094 L 48.296875 81.589844 C 48.296875 60.984375 65.066406 44.226562 85.675781 44.226562 L 297.46875 44.226562 C 318.082031 44.226562 334.84375 60.984375 334.84375 81.589844 L 334.84375 94.046875 C 334.84375 97.484375 332.054688 100.273438 328.613281 100.273438 C 325.175781 100.273438 322.386719 97.484375 322.386719 94.046875 L 322.386719 81.589844 C 322.386719 67.851562 311.210938 56.683594 297.46875 56.683594 L 85.675781 56.683594 C 71.933594 56.683594 60.757812 67.851562 60.757812 81.589844 L 60.757812 243.496094 C 60.757812 246.933594 57.964844 249.726562 54.527344 249.726562 Z M 54.527344 249.726562 " fill-opacity="1" fill-rule="nonzero"/><g clip-path="url(#id2)"><g clip-path="url(#id3)"><g clip-path="url(#id4)"><path fill="#be63e5" d="M 112.472656 115.859375 C 106.601562 117.050781 102.742188 122.871094 103.933594 128.746094 L 107.34375 145.570312 C 107.898438 148.308594 109.609375 150.46875 111.714844 152.023438 L 102.128906 175.480469 C 101.941406 175.941406 101.84375 176.421875 101.839844 176.921875 C 101.835938 177.421875 101.921875 177.902344 102.101562 178.367188 C 102.28125 178.835938 102.542969 179.25 102.882812 179.617188 C 103.222656 179.980469 103.617188 180.269531 104.070312 180.484375 C 104.070312 180.484375 108.320312 182.414062 115.03125 183.488281 L 131.226562 263.378906 C 133.785156 276.007812 146.199219 284.234375 158.828125 281.675781 L 258.277344 261.515625 C 270.902344 258.953125 279.132812 246.539062 276.574219 233.914062 L 260.289062 153.589844 C 260.277344 153.539062 260.261719 153.484375 260.25 153.433594 C 265.675781 150.1875 268.933594 147.347656 268.933594 147.347656 C 269.148438 147.164062 269.34375 146.953125 269.515625 146.722656 C 269.6875 146.496094 269.832031 146.25 269.949219 145.988281 C 270.066406 145.726562 270.152344 145.453125 270.210938 145.171875 C 270.269531 144.890625 270.292969 144.609375 270.289062 144.320312 C 270.285156 144.035156 270.25 143.75 270.179688 143.472656 C 270.113281 143.195312 270.015625 142.925781 269.890625 142.667969 C 269.765625 142.410156 269.609375 142.171875 269.433594 141.949219 C 269.253906 141.722656 269.050781 141.523438 268.828125 141.34375 L 249.171875 125.582031 C 251.726562 123.066406 253.445312 119.839844 252.6875 116.101562 L 249.277344 99.277344 C 248.085938 93.40625 242.265625 89.546875 236.394531 90.738281 Z M 114.023438 123.511719 L 237.945312 98.386719 C 239.652344 98.042969 241.28125 99.121094 241.628906 100.828125 L 245.039062 117.652344 C 245.386719 119.363281 244.304688 120.992188 242.597656 121.335938 L 242.328125 121.390625 C 241.960938 121.414062 241.601562 121.484375 241.253906 121.609375 L 118.675781 146.460938 C 116.96875 146.804688 115.339844 145.726562 114.992188 144.019531 L 111.582031 127.195312 C 111.234375 125.484375 112.316406 123.855469 114.023438 123.511719 Z M 119.367188 153.941406 C 119.675781 153.90625 119.917969 154.171875 120.226562 154.109375 L 241.59375 129.503906 L 259.871094 144.160156 C 255.761719 147.167969 247.980469 152.34375 236.644531 154.398438 C 229.839844 155.632812 221.960938 154.757812 214.316406 151.632812 C 213.6875 151.375 213.039062 151.289062 212.367188 151.371094 C 211.691406 151.453125 211.082031 151.695312 210.535156 152.09375 C 201.976562 158.351562 197.566406 162.324219 186.839844 164.496094 C 178.808594 166.125 170.59375 165.964844 160.589844 162.421875 C 159.960938 162.199219 159.320312 162.144531 158.660156 162.25 C 158.003906 162.355469 157.410156 162.617188 156.886719 163.027344 C 148.101562 169.894531 139.777344 174.023438 132.695312 175.476562 C 121.652344 177.738281 114.613281 175.777344 110.960938 174.5 Z M 160.078125 170.21875 C 170.429688 173.488281 179.796875 173.890625 188.390625 172.148438 C 199.828125 169.828125 206.042969 165.035156 213.613281 159.449219 C 221.824219 162.398438 230.273438 163.492188 238.03125 162.082031 C 243.605469 161.074219 248.644531 159.21875 253.050781 157.179688 L 268.921875 235.464844 C 270.644531 243.957031 265.21875 252.144531 256.726562 253.863281 L 157.277344 274.027344 C 148.785156 275.746094 140.597656 270.320312 138.875 261.828125 L 123.132812 184.164062 C 126.554688 184.191406 130.277344 183.9375 134.257812 183.121094 C 142.480469 181.4375 151.1875 176.902344 160.078125 170.21875 Z M 160.078125 170.21875 " fill-opacity="1" fill-rule="nonzero"/></g></g></g></svg>